# xmcd CD database file
#
# Track frame offsets:
#	150
#	7890
#	17537
#	25382
#	72880
#	110602
#	117300
#	124870
#	154525
#	187810
#	196267
#	204370
#	235550
#	278780
#	287980
#	294432
#
# Disc length: 4140 seconds
#
# Revision: 0
# Processed by: cddbd v1.5PL3 Copyright (c) Steve Scherf et al.
# Submitted via: CDex 1.51
#
DISCID=d5102a10
DTITLE=S-nery - 夢さめ戦隊S-neryのラジオ・イイナ1
DYEAR=1996
DGENRE=Other
TTITLE0=桂川千絵のキュートロリータクラブ#1
TTITLE1=夢さめ戦隊S-nery#1
TTITLE2=夢さめ戦隊S-nery#2
TTITLE3=「イイナ」第1話 「鍵のかかった、ガラスの庭」
TTITLE4=「イイナ」第2話 「裸足の貝殻」
TTITLE5=夢さめ戦隊S-nery#3
TTITLE6=夢さめ戦隊S-nery#4
TTITLE7=「イイナ」第3話 「ここではないどこかの、もうひとりのわたし」
TTITLE8=「イイナ」第4話 「幾千もの流星と音の連なり」
TTITLE9=夢さめ戦隊S-nery#5
TTITLE10=夢さめ戦隊S-nery#6
TTITLE11=夢さめ戦隊S-nery#6
TTITLE12=「イイナ」第6話 「ボディーフォトグラフ」
TTITLE13=夢さめ戦隊S-nery#7
TTITLE14=前田このみのPink S-nery
TTITLE15=千のプラトー 〜愛について語るとき僕たちの語ること〜
EXTD=YEAR: 1996
EXTT0=
EXTT1=
EXTT2=
EXTT3=
EXTT4=
EXTT5=
EXTT6=
EXTT7=
EXTT8=
EXTT9=
EXTT10=
EXTT11=
EXTT12=
EXTT13=
EXTT14=
EXTT15=
PLAYORDER=
